<svg xmlns="http://www.w3.org/2000/svg" xmlns:xlink="http://www.w3.org/1999/xlink" width="96" zoomAndPan="magnify" viewBox="0 0 72 72" height="96" preserveAspectRatio="xMidYMid meet" version="1.0"><rect x="-7.2" width="86.4" fill="#ffffff" y="-7.2" height="86.4" fill-opacity="1"/><rect x="-7.2" width="86.4" fill="#ffffff" y="-7.2" height="86.4" fill-opacity="1"/><path fill="#151e24" d="M 72.003906 36 C 72.003906 45.210938 68.546875 53.613281 62.855469 59.976562 C 56.265625 67.359375 46.675781 72.003906 36.003906 72.003906 C 25.328125 72.003906 15.738281 67.359375 9.148438 59.976562 C 3.457031 53.613281 0 45.210938 0 36 C 0 16.121094 16.117188 0 36.003906 0 C 55.882812 0 72.003906 16.121094 72.003906 36 " fill-opacity="1" fill-rule="nonzero"/><path fill="#f2f2f2" d="M 36.003906 42.632812 C 42.527344 42.632812 48.46875 35.25 48.46875 27.144531 C 48.46875 19.488281 46.988281 11.914062 36.003906 11.914062 C 25.015625 11.914062 23.53125 19.488281 23.53125 27.144531 C 23.53125 35.25 29.476562 42.632812 36.003906 42.632812 " fill-opacity="1" fill-rule="nonzero"/><path fill="#f2f2f2" d="M 62.855469 59.976562 C 56.265625 67.359375 46.675781 72.003906 36.003906 72.003906 C 25.328125 72.003906 15.738281 67.359375 9.148438 59.976562 C 9.035156 55.53125 11.996094 45.230469 27.097656 42.058594 C 29.679688 44.695312 32.859375 46.1875 36.003906 46.1875 C 39.144531 46.1875 42.320312 44.695312 44.902344 42.058594 C 60.007812 45.230469 62.96875 55.53125 62.855469 59.976562 " fill-opacity="1" fill-rule="nonzero"/></svg>