<svg xmlns="http://www.w3.org/2000/svg" xmlns:xlink="http://www.w3.org/1999/xlink" width="960" zoomAndPan="magnify" viewBox="0 0 720 719.999996" height="960" preserveAspectRatio="xMidYMid meet" version="1.0"><defs><g/><clipPath id="f742807993"><path d="M 75 0 L 645 0 C 664.890625 0 683.96875 7.902344 698.03125 21.96875 C 712.097656 36.03125 720 55.109375 720 75 L 720 645 C 720 664.890625 712.097656 683.96875 698.03125 698.03125 C 683.96875 712.097656 664.890625 720 645 720 L 75 720 C 55.109375 720 36.03125 712.097656 21.96875 698.03125 C 7.902344 683.96875 0 664.890625 0 645 L 0 75 C 0 55.109375 7.902344 36.03125 21.96875 21.96875 C 36.03125 7.902344 55.109375 0 75 0 Z M 75 0 " clip-rule="nonzero"/></clipPath><clipPath id="b7e99199c2"><path d="M 0 0 L 720 0 L 720 720 L 0 720 Z M 0 0 " clip-rule="nonzero"/></clipPath><clipPath id="8e782f815a"><path d="M 75 0 L 645 0 C 664.890625 0 683.96875 7.902344 698.03125 21.96875 C 712.097656 36.03125 720 55.109375 720 75 L 720 645 C 720 664.890625 712.097656 683.96875 698.03125 698.03125 C 683.96875 712.097656 664.890625 720 645 720 L 75 720 C 55.109375 720 36.03125 712.097656 21.96875 698.03125 C 7.902344 683.96875 0 664.890625 0 645 L 0 75 C 0 55.109375 7.902344 36.03125 21.96875 21.96875 C 36.03125 7.902344 55.109375 0 75 0 Z M 75 0 " clip-rule="nonzero"/></clipPath><clipPath id="b8e15cf8f7"><rect x="0" width="720" y="0" height="720"/></clipPath><clipPath id="9d4d3a98d5"><path d="M 0 97 L 367 97 L 367 619 L 0 619 Z M 0 97 " clip-rule="nonzero"/></clipPath><clipPath id="7b1b6b2503"><path d="M 348 90 L 720 90 L 720 624 L 348 624 Z M 348 90 " clip-rule="nonzero"/></clipPath><clipPath id="8de4059ea7"><rect x="0" width="720" y="0" height="720"/></clipPath></defs><g clip-path="url(#f742807993)"><g transform="matrix(1, 0, 0, 1, 0, -0.000000000000023324)"><g clip-path="url(#b8e15cf8f7)"><g clip-path="url(#b7e99199c2)"><g clip-path="url(#8e782f815a)"><rect x="-158.4" width="1036.8" fill="#040d12" height="1036.799994" y="-158.399999" fill-opacity="1"/></g></g></g></g></g><g transform="matrix(1, 0, 0, 1, 0, -0.000000000000023324)"><g clip-path="url(#8de4059ea7)"><g clip-path="url(#9d4d3a98d5)"><g fill="#ffffff" fill-opacity="1"><g transform="translate(-54.064834, 618.720926)"><g><path d="M 420.734375 -520.921875 L 420.734375 -419.25 L 282.71875 -419.25 L 282.71875 0 L 155.828125 0 L 155.828125 -419.25 L 17.8125 -419.25 L 17.8125 -520.921875 Z M 420.734375 -520.921875 "/></g></g></g></g><g clip-path="url(#7b1b6b2503)"><g fill="#ffffff" fill-opacity="1"><g transform="translate(317.700144, 618.720926)"><g><path d="M 234.484375 5.1875 C 196.390625 5.1875 162.253906 -0.992188 132.078125 -13.359375 C 101.898438 -25.722656 77.785156 -44.023438 59.734375 -68.265625 C 41.679688 -92.503906 32.160156 -121.691406 31.171875 -155.828125 L 166.21875 -155.828125 C 168.195312 -136.535156 174.875 -121.816406 186.25 -111.671875 C 197.632812 -101.535156 212.476562 -96.46875 230.78125 -96.46875 C 249.570312 -96.46875 264.410156 -100.796875 275.296875 -109.453125 C 286.179688 -118.109375 291.625 -130.101562 291.625 -145.4375 C 291.625 -158.300781 287.296875 -168.9375 278.640625 -177.34375 C 269.984375 -185.757812 259.347656 -192.6875 246.734375 -198.125 C 234.117188 -203.5625 216.1875 -209.742188 192.9375 -216.671875 C 159.289062 -227.066406 131.832031 -237.457031 110.5625 -247.84375 C 89.289062 -258.226562 70.988281 -273.5625 55.65625 -293.84375 C 40.320312 -314.132812 32.65625 -340.601562 32.65625 -373.25 C 32.65625 -421.726562 50.210938 -459.695312 85.328125 -487.15625 C 120.453125 -514.613281 166.210938 -528.34375 222.609375 -528.34375 C 279.992188 -528.34375 326.25 -514.613281 361.375 -487.15625 C 396.5 -459.695312 415.296875 -421.476562 417.765625 -372.5 L 280.5 -372.5 C 279.507812 -389.320312 273.320312 -402.554688 261.9375 -412.203125 C 250.5625 -421.847656 235.96875 -426.671875 218.15625 -426.671875 C 202.820312 -426.671875 190.453125 -422.585938 181.046875 -414.421875 C 171.648438 -406.265625 166.953125 -394.519531 166.953125 -379.1875 C 166.953125 -362.363281 174.867188 -349.253906 190.703125 -339.859375 C 206.535156 -330.460938 231.269531 -320.320312 264.90625 -309.4375 C 298.550781 -298.050781 325.882812 -287.164062 346.90625 -276.78125 C 367.925781 -266.394531 386.101562 -251.304688 401.4375 -231.515625 C 416.78125 -211.734375 424.453125 -186.257812 424.453125 -155.09375 C 424.453125 -125.40625 416.90625 -98.441406 401.8125 -74.203125 C 386.726562 -49.960938 364.835938 -30.671875 336.140625 -16.328125 C 307.453125 -1.984375 273.566406 5.1875 234.484375 5.1875 Z M 234.484375 5.1875 "/></g></g></g></g></g></g></svg>
